<?xml version="1.0" standalone="no"?>
<!DOCTYPE svg PUBLIC "-//W3C//DTD SVG 20010904//EN"
 "http://www.w3.org/TR/2001/REC-SVG-20010904/DTD/svg10.dtd">
<svg version="1.0" xmlns="http://www.w3.org/2000/svg"
 width="920.000000pt" height="512.000000pt" viewBox="0 0 920.000000 512.000000"
 preserveAspectRatio="xMidYMid meet">

<g transform="translate(0.000000,512.000000) scale(0.100000,-0.100000)"
fill="#000000" stroke="none">
<path d="M3108 3925 c-148 -36 -277 -144 -352 -294 -55 -108 -56 -114 -56
-1026 0 -920 0 -916 59 -1034 41 -81 155 -199 228 -239 133 -70 54 -66 1308
-66 912 0 1141 2 1185 13 84 21 160 64 216 123 106 109 917 1113 940 1163 29
61 30 125 5 180 -24 50 -939 1081 -991 1116 -21 14 -69 36 -106 50 l-69 24
-1155 2 c-961 1 -1165 -1 -1212 -12z m1998 -862 c46 -43 84 -83 84 -90 0 -6
-194 -203 -432 -436 l-432 -425 -270 264 c-149 146 -271 271 -271 277 0 16
158 167 175 167 7 0 92 -82 190 -182 l177 -183 339 343 c187 188 343 343 347
342 5 0 46 -35 93 -77z"/>
</g>
</svg>
